<svg xmlns="http://www.w3.org/2000/svg" xmlns:xlink="http://www.w3.org/1999/xlink" viewBox="0 0 1324.21 72"><defs><style>.cls-1{fill:url(#radial-gradient);}.cls-2{fill:url(#未命名的渐变_8);}.cls-17,.cls-3{fill:none;}.cls-4{isolation:isolate;}.cls-5{clip-path:url(#clip-path);}.cls-6{opacity:0.17;}.cls-19,.cls-20,.cls-21,.cls-22,.cls-23,.cls-7{mix-blend-mode:soft-light;}.cls-19,.cls-8{fill:#fff;}.cls-23,.cls-9{fill:#b4b3b3;}.cls-10,.cls-20{fill:#ccc;}.cls-11{fill:#151515;}.cls-12{opacity:0.23;}.cls-12,.cls-25{mix-blend-mode:luminosity;}.cls-13{fill:#050b1a;}.cls-14{clip-path:url(#clip-path-2);}.cls-15,.cls-26{mix-blend-mode:color-dodge;}.cls-15{fill:url(#radial-gradient-2);}.cls-16{mask:url(#mask);}.cls-17{stroke:#fff;stroke-miterlimit:10;stroke-width:0.41px;}.cls-17,.cls-30{mix-blend-mode:overlay;}.cls-18{opacity:0.21;}.cls-21{fill:#999;}.cls-22{fill:#e6e6e5;}.cls-24{mask:url(#mask-2);}.cls-25{opacity:0.25;}.cls-27{fill:url(#linear-gradient);}.cls-28{fill:url(#linear-gradient-2);}.cls-29{opacity:0.14;}</style><radialGradient id="radial-gradient" cx="1055.19" cy="621.43" r="540.4" gradientTransform="matrix(2.26, 0, 0, -0.41, -1765.7, 481.8)" gradientUnits="userSpaceOnUse"><stop offset="0" stop-color="#fff"/><stop offset="0.07" stop-color="#e5e5e5"/><stop offset="0.26" stop-color="#a8a8a8"/><stop offset="0.44" stop-color="#757676"/><stop offset="0.61" stop-color="#4e4e4e"/><stop offset="0.77" stop-color="#313232"/><stop offset="0.9" stop-color="#202121"/><stop offset="1" stop-color="#1a1b1b"/></radialGradient><linearGradient id="未命名的渐变_8" x1="121.96" y1="14.71" x2="1129.44" y2="14.71" gradientUnits="userSpaceOnUse"><stop offset="0" stop-color="#231815"/><stop offset="0.17" stop-color="#251a17"/><stop offset="0.25" stop-color="#2c221f"/><stop offset="0.31" stop-color="#382e2c"/><stop offset="0.36" stop-color="#4a413e"/><stop offset="0.41" stop-color="#605856"/><stop offset="0.45" stop-color="#7c7674"/><stop offset="0.49" stop-color="#9d9997"/><stop offset="0.53" stop-color="#c4c1c0"/><stop offset="0.56" stop-color="#eeeded"/><stop offset="0.57" stop-color="#fff"/><stop offset="1" stop-color="#231815"/></linearGradient><clipPath id="clip-path"><rect id="SVGID" class="cls-3" width="1324.21" height="72"/></clipPath><clipPath id="clip-path-2"><rect id="SVGID-2" data-name="SVGID" class="cls-3" x="-1150.26" y="-0.91" width="3531.83" height="460.11" transform="translate(0.79 -2.12) rotate(0.2)"/></clipPath><radialGradient id="radial-gradient-2" cx="1185.71" cy="-1046.34" r="1389.47" gradientTransform="matrix(0, 2.26, -0.47, 0, 1890.14, -2670.74)" gradientUnits="userSpaceOnUse"><stop offset="0" stop-color="#e6e6e5"/><stop offset="0.15" stop-color="#e3e2e1"/><stop offset="0.28" stop-color="#d8d8d7"/><stop offset="0.41" stop-color="#c6c5c4"/><stop offset="0.54" stop-color="#adacab"/><stop offset="0.66" stop-color="#8c8a8a"/><stop offset="0.78" stop-color="#646261"/><stop offset="0.89" stop-color="#363332"/><stop offset="1" stop-color="#040000"/></radialGradient><mask id="mask" x="-1151.05" y="-6.99" width="3533.39" height="472.29" maskUnits="userSpaceOnUse"><rect class="cls-1" x="-1150.26" y="-0.91" width="3531.83" height="460.11" transform="translate(1230.51 460.42) rotate(-179.8)"/></mask><mask id="mask-2" x="121.96" y="-77.25" width="1007.48" height="183.91" maskUnits="userSpaceOnUse"><rect class="cls-2" x="121.96" y="-77.25" width="1007.48" height="183.91"/></mask><linearGradient id="linear-gradient" x1="127.89" y1="38.39" x2="1126.17" y2="38.39" gradientUnits="userSpaceOnUse"><stop offset="0" stop-color="#040000"/><stop offset="0.19" stop-color="#ccc"/><stop offset="0.3" stop-color="silver"/><stop offset="0.46" stop-color="#b4b3b3"/><stop offset="0.59" stop-color="#1a1a1a"/><stop offset="0.69" stop-color="#fff"/><stop offset="0.78" stop-color="#4e4d4d"/><stop offset="0.93" stop-color="#bcbcbc"/><stop offset="1" stop-color="#e6e6e5"/></linearGradient><linearGradient id="linear-gradient-2" x1="90.02" y1="652.14" x2="768.85" y2="652.14" gradientTransform="matrix(1, 0, 0, -1, 357.32, 686.9)" gradientUnits="userSpaceOnUse"><stop offset="0" stop-color="#040000"/><stop offset="0.19" stop-color="#ccc"/><stop offset="0.28" stop-color="#a4a4a4"/><stop offset="0.41" stop-color="#666767"/><stop offset="0.45" stop-color="#858585"/><stop offset="0.5" stop-color="#a7a6a6"/><stop offset="0.53" stop-color="#b4b3b3"/><stop offset="0.69" stop-color="#fff"/><stop offset="0.78" stop-color="#4e4d4d"/><stop offset="0.93" stop-color="#bcbcbc"/><stop offset="1" stop-color="#e6e6e5"/></linearGradient></defs><title>头部</title><g class="cls-4"><g id="图层_1" data-name="图层 1"><g class="cls-5"><g class="cls-6"><g class="cls-7"><rect class="cls-8" x="1252.08" y="58.51" width="3.57" height="2.42"/></g><g class="cls-7"><rect class="cls-8" x="1256.55" y="58.51" width="4.47" height="2.42"/></g><g class="cls-7"><rect class="cls-8" x="1261.01" y="58.51" width="4.47" height="2.42"/></g><g class="cls-7"><rect class="cls-8" x="1266.37" y="58.51" width="3.57" height="2.42"/></g><g class="cls-7"><rect class="cls-9" x="1270.84" y="58.51" width="3.57" height="2.42"/></g><g class="cls-7"><rect class="cls-8" x="1275.31" y="58.51" width="3.57" height="2.42"/></g><g class="cls-7"><rect class="cls-9" x="1279.77" y="58.51" width="3.57" height="2.42"/></g><g class="cls-7"><rect class="cls-9" x="1284.24" y="58.51" width="3.57" height="2.42"/></g><g class="cls-7"><rect class="cls-10" x="1288.7" y="58.51" width="3.57" height="2.42"/></g><g class="cls-7"><rect class="cls-10" x="1225.29" y="54.88" width="3.57" height="2.42"/></g><g class="cls-7"><rect class="cls-9" x="1229.75" y="54.88" width="3.57" height="2.42"/></g><g class="cls-7"><rect class="cls-9" x="1234.22" y="54.88" width="3.57" height="2.42"/></g><g class="cls-7"><rect class="cls-8" x="1238.68" y="54.88" width="3.57" height="2.42"/></g><g class="cls-7"><rect class="cls-8" x="1243.15" y="54.88" width="3.57" height="2.42"/></g><g class="cls-7"><rect class="cls-8" x="1247.62" y="54.88" width="3.57" height="2.42"/></g><g class="cls-7"><rect class="cls-8" x="1252.08" y="54.88" width="3.57" height="2.42"/></g><g class="cls-7"><rect class="cls-8" x="1256.55" y="54.88" width="4.47" height="2.42"/></g><g class="cls-7"><rect class="cls-8" x="1261.01" y="54.88" width="4.47" height="2.42"/></g></g><rect class="cls-11" x="-2.58" y="-2.73" width="1326.92" height="76.86" transform="translate(0.13 -2.28) rotate(0.2)"/><g class="cls-12"><rect class="cls-13" x="-1150.26" y="-0.91" width="3531.83" height="460.11" transform="translate(1230.51 460.42) rotate(-179.8)"/><g class="cls-14"><ellipse class="cls-15" cx="2382.35" cy="5.18" rx="653.63" ry="3135.77" transform="translate(2368.96 2387.49) rotate(-89.8)"/></g><g class="cls-16"><line class="cls-17" x1="2382.08" y1="83.87" x2="-1149.73" y2="71.69"/><line class="cls-17" x1="2382.1" y1="75.46" x2="-1149.7" y2="63.28"/><line class="cls-17" x1="2382.13" y1="67.05" x2="-1149.67" y2="54.87"/><line class="cls-17" x1="2382.16" y1="58.64" x2="-1149.65" y2="46.46"/><line class="cls-17" x1="2382.19" y1="50.22" x2="-1149.62" y2="38.05"/><line class="cls-17" x1="2382.22" y1="41.81" x2="-1149.59" y2="29.64"/><line class="cls-17" x1="2382.25" y1="33.4" x2="-1149.56" y2="21.23"/><line class="cls-17" x1="2382.28" y1="24.99" x2="-1149.53" y2="12.82"/><line class="cls-17" x1="2382.31" y1="16.58" x2="-1149.5" y2="4.41"/><line class="cls-17" x1="2382.34" y1="8.17" x2="-1149.47" y2="-4"/><line class="cls-17" x1="1252.53" y1="1.29" x2="1250.95" y2="461.4"/><line class="cls-17" x1="1212.18" y1="1.15" x2="1210.6" y2="461.26"/><line class="cls-17" x1="1171.83" y1="1.01" x2="1170.25" y2="461.12"/><line class="cls-17" x1="1131.48" y1="0.87" x2="1129.9" y2="460.98"/><line class="cls-17" x1="1091.13" y1="0.73" x2="1089.55" y2="460.84"/><line class="cls-17" x1="1050.78" y1="0.59" x2="1049.2" y2="460.7"/><line class="cls-17" x1="1010.43" y1="0.45" x2="1008.85" y2="460.56"/><line class="cls-17" x1="970.08" y1="0.31" x2="968.49" y2="460.42"/><line class="cls-17" x1="929.73" y1="0.17" x2="928.14" y2="460.28"/><line class="cls-17" x1="889.38" y1="0.03" x2="887.79" y2="460.15"/><line class="cls-17" x1="849.03" y1="-0.11" x2="847.44" y2="460.01"/><line class="cls-17" x1="808.68" y1="-0.24" x2="807.09" y2="459.87"/><line class="cls-17" x1="768.33" y1="-0.38" x2="766.74" y2="459.73"/><line class="cls-17" x1="727.98" y1="-0.52" x2="726.39" y2="459.59"/><line class="cls-17" x1="687.63" y1="-0.66" x2="686.04" y2="459.45"/><line class="cls-17" x1="647.28" y1="-0.8" x2="645.69" y2="459.31"/><line class="cls-17" x1="606.93" y1="-0.94" x2="605.34" y2="459.17"/><line class="cls-17" x1="566.58" y1="-1.08" x2="564.99" y2="459.03"/><line class="cls-17" x1="526.22" y1="-1.22" x2="524.64" y2="458.89"/><line class="cls-17" x1="485.88" y1="-1.36" x2="484.29" y2="458.76"/><line class="cls-17" x1="445.53" y1="-1.5" x2="443.94" y2="458.62"/><line class="cls-17" x1="405.17" y1="-1.64" x2="403.59" y2="458.48"/><line class="cls-17" x1="364.82" y1="-1.77" x2="363.24" y2="458.34"/><line class="cls-17" x1="324.47" y1="-1.91" x2="322.89" y2="458.2"/><line class="cls-17" x1="284.12" y1="-2.05" x2="282.54" y2="458.06"/><line class="cls-17" x1="243.77" y1="-2.19" x2="242.19" y2="457.92"/><line class="cls-17" x1="203.42" y1="-2.33" x2="201.84" y2="457.78"/><line class="cls-17" x1="163.07" y1="-2.47" x2="161.49" y2="457.64"/><line class="cls-17" x1="122.72" y1="-2.61" x2="121.13" y2="457.5"/><line class="cls-17" x1="82.37" y1="-2.75" x2="80.79" y2="457.36"/><line class="cls-17" x1="42.02" y1="-2.89" x2="40.43" y2="457.23"/><line class="cls-17" x1="1.67" y1="-3.03" x2="0.08" y2="457.09"/><line class="cls-17" x1="1292.89" y1="1.42" x2="1291.3" y2="461.54"/></g></g><rect class="cls-3" x="-5.36" y="-6.23" width="1325.92" height="83.56"/><g class="cls-18"><rect class="cls-19" x="194.55" y="37.22" width="6.81" height="6.81"/><rect class="cls-19" x="213.47" y="37.22" width="6.81" height="6.81"/><rect class="cls-19" x="204.39" y="37.22" width="6.06" height="6.81"/><rect class="cls-19" x="185.47" y="37.22" width="6.81" height="6.81"/><rect class="cls-19" x="176.38" y="37.22" width="6.81" height="6.81"/><rect class="cls-19" x="167.3" y="37.22" width="6.81" height="6.81"/><rect class="cls-19" x="158.21" y="37.22" width="6.81" height="6.81"/><rect class="cls-19" x="149.13" y="37.22" width="6.81" height="6.81"/><rect class="cls-19" x="140.05" y="37.22" width="6.81" height="6.81"/><rect class="cls-19" x="130.96" y="37.22" width="6.81" height="6.81"/><rect class="cls-19" x="121.88" y="37.22" width="6.81" height="6.81"/><rect class="cls-19" x="112.8" y="37.22" width="6.81" height="6.81"/><rect class="cls-19" x="103.71" y="37.22" width="6.81" height="6.81"/><rect class="cls-19" x="85.54" y="37.22" width="6.81" height="6.81"/><rect class="cls-19" x="76.46" y="37.22" width="6.81" height="6.81"/><rect class="cls-19" x="67.38" y="37.22" width="6.81" height="6.81"/><rect class="cls-19" x="58.29" y="37.22" width="6.81" height="6.81"/><rect class="cls-19" x="49.21" y="37.22" width="6.81" height="6.81"/><rect class="cls-19" x="40.12" y="37.22" width="6.81" height="6.81"/><rect class="cls-19" x="231.64" y="37.22" width="6.81" height="6.81"/><rect class="cls-19" x="240.73" y="37.22" width="6.81" height="6.81"/><rect class="cls-19" x="249.81" y="37.22" width="6.81" height="6.81"/><rect class="cls-19" x="258.89" y="37.22" width="6.81" height="6.81"/><rect class="cls-19" x="267.98" y="37.22" width="6.81" height="6.81"/><rect class="cls-19" x="185.47" y="46.3" width="6.81" height="6.81"/><rect class="cls-19" x="176.38" y="46.3" width="6.81" height="6.81"/><rect class="cls-19" x="167.3" y="46.3" width="6.81" height="6.81"/><rect class="cls-19" x="158.21" y="46.3" width="6.81" height="6.81"/><rect class="cls-19" x="149.13" y="46.3" width="6.81" height="6.81"/><rect class="cls-19" x="140.05" y="46.3" width="6.81" height="6.81"/><rect class="cls-19" x="130.96" y="46.3" width="6.81" height="6.81"/><rect class="cls-19" x="121.88" y="46.3" width="6.81" height="6.81"/><rect class="cls-19" x="112.8" y="46.3" width="6.81" height="6.81"/><rect class="cls-19" x="103.71" y="46.3" width="6.81" height="6.81"/><rect class="cls-19" x="94.63" y="46.3" width="6.81" height="6.81"/><rect class="cls-19" x="85.54" y="46.3" width="6.81" height="6.81"/><rect class="cls-19" x="194.55" y="46.3" width="6.81" height="6.81"/><rect class="cls-19" x="176.38" y="28.14" width="6.81" height="6.81"/><rect class="cls-19" x="167.3" y="28.14" width="6.81" height="6.81"/><rect class="cls-19" x="158.21" y="28.14" width="6.81" height="6.81"/><rect class="cls-19" x="149.13" y="28.14" width="6.81" height="6.81"/><rect class="cls-19" x="140.05" y="28.14" width="6.81" height="6.81"/><rect class="cls-19" x="130.96" y="28.14" width="6.81" height="6.81"/><rect class="cls-19" x="112.8" y="28.14" width="6.81" height="6.81"/><rect class="cls-19" x="103.71" y="28.14" width="6.81" height="6.81"/><rect class="cls-19" x="94.63" y="28.14" width="6.81" height="6.81"/><rect class="cls-19" x="85.54" y="28.14" width="6.81" height="6.81"/><rect class="cls-19" x="67.38" y="28.14" width="6.81" height="6.81"/><rect class="cls-19" x="58.29" y="28.14" width="6.81" height="6.81"/><rect class="cls-19" x="194.55" y="19.05" width="6.81" height="6.81"/><rect class="cls-19" x="185.47" y="19.05" width="6.81" height="6.81"/><rect class="cls-19" x="176.38" y="19.05" width="6.81" height="6.81"/><rect class="cls-19" x="167.3" y="19.05" width="6.81" height="6.81"/><rect class="cls-19" x="158.21" y="19.05" width="6.81" height="6.81"/><rect class="cls-19" x="149.13" y="19.05" width="6.81" height="6.81"/><rect class="cls-19" x="140.05" y="19.05" width="6.81" height="6.81"/><rect class="cls-19" x="130.96" y="19.05" width="6.81" height="6.81"/><rect class="cls-19" x="121.88" y="19.05" width="6.81" height="6.81"/><rect class="cls-19" x="112.8" y="19.05" width="6.81" height="6.81"/><rect class="cls-19" x="103.71" y="19.05" width="6.81" height="6.81"/><rect class="cls-19" x="94.63" y="19.05" width="6.81" height="6.81"/><rect class="cls-19" x="85.54" y="19.05" width="6.81" height="6.81"/><rect class="cls-19" x="76.46" y="19.05" width="6.81" height="6.81"/><rect class="cls-19" x="67.38" y="19.05" width="6.81" height="6.81"/><rect class="cls-19" x="58.29" y="19.05" width="6.81" height="6.81"/><rect class="cls-19" x="49.21" y="19.05" width="6.81" height="6.81"/><rect class="cls-19" x="40.12" y="19.05" width="6.81" height="6.81"/><rect class="cls-19" x="31.04" y="19.05" width="6.81" height="6.81"/><rect class="cls-20" x="21.96" y="19.05" width="6.06" height="6.81"/><rect class="cls-19" x="204.39" y="46.3" width="6.06" height="6.81"/><rect class="cls-19" x="185.47" y="54.62" width="6.81" height="6.81"/><rect class="cls-19" x="176.38" y="54.62" width="6.81" height="6.81"/><rect class="cls-19" x="167.3" y="54.62" width="6.81" height="6.81"/><rect class="cls-19" x="158.21" y="54.62" width="6.81" height="6.81"/><rect class="cls-19" x="149.13" y="54.62" width="6.81" height="6.81"/><rect class="cls-19" x="130.96" y="54.62" width="6.81" height="6.81"/><rect class="cls-19" x="121.88" y="54.62" width="6.81" height="6.81"/><rect class="cls-19" x="112.8" y="54.62" width="6.81" height="6.81"/><rect class="cls-19" x="231.64" y="54.62" width="6.81" height="6.81"/><rect class="cls-19" x="222.56" y="37.22" width="6.81" height="6.81"/><rect class="cls-19" x="222.56" y="46.3" width="6.81" height="6.81"/><rect class="cls-19" x="286.15" y="37.22" width="6.81" height="6.81"/><rect class="cls-19" x="286.15" y="46.3" width="6.81" height="6.81"/><rect class="cls-19" x="277.06" y="37.22" width="6.81" height="6.81"/><rect class="cls-19" x="277.06" y="46.3" width="6.81" height="6.81"/><rect class="cls-19" x="295.23" y="37.22" width="6.81" height="6.81"/><rect class="cls-19" x="295.23" y="46.3" width="6.81" height="6.81"/><rect class="cls-19" x="295.23" y="54.62" width="6.81" height="6.81"/><rect class="cls-19" x="286.15" y="54.62" width="6.81" height="6.81"/><rect class="cls-19" x="267.98" y="54.62" width="6.81" height="6.81"/><rect class="cls-19" x="304.31" y="37.22" width="6.81" height="6.81"/><rect class="cls-19" x="304.31" y="46.3" width="6.81" height="6.81"/><rect class="cls-19" x="304.31" y="54.62" width="6.81" height="6.81"/><rect class="cls-19" x="313.4" y="37.22" width="6.81" height="6.81"/><rect class="cls-19" x="313.4" y="46.3" width="6.81" height="6.81"/><rect class="cls-19" x="313.4" y="54.62" width="6.81" height="6.81"/><rect class="cls-19" x="322.48" y="37.22" width="6.81" height="6.81"/><rect class="cls-19" x="322.48" y="46.3" width="6.81" height="6.81"/><rect class="cls-19" x="331.56" y="37.22" width="6.81" height="6.81"/><rect class="cls-19" x="213.47" y="28.14" width="6.81" height="6.81"/><rect class="cls-19" x="222.56" y="28.14" width="6.81" height="6.81"/><rect class="cls-19" x="267.98" y="28.14" width="6.81" height="6.81"/><rect class="cls-19" x="258.89" y="28.14" width="6.81" height="6.81"/><rect class="cls-19" x="277.06" y="28.14" width="6.81" height="6.81"/><rect class="cls-19" x="286.15" y="28.14" width="6.81" height="6.81"/><rect class="cls-19" x="295.23" y="28.14" width="6.81" height="6.81"/><rect class="cls-19" x="322.48" y="28.14" width="6.81" height="6.81"/><rect class="cls-19" x="331.56" y="28.14" width="6.81" height="6.81"/><rect class="cls-19" x="340.65" y="28.14" width="6.81" height="6.81"/><rect class="cls-19" x="204.39" y="19.05" width="6.06" height="6.81"/><rect class="cls-19" x="222.56" y="19.05" width="6.81" height="6.81"/><rect class="cls-19" x="213.47" y="19.05" width="6.81" height="6.81"/><rect class="cls-19" x="231.64" y="19.05" width="6.81" height="6.81"/><rect class="cls-19" x="249.81" y="19.05" width="6.81" height="6.81"/><rect class="cls-19" x="240.73" y="19.05" width="6.81" height="6.81"/><rect class="cls-19" x="258.89" y="19.05" width="6.81" height="6.81"/><rect class="cls-19" x="267.98" y="19.05" width="6.81" height="6.81"/><rect class="cls-19" x="286.15" y="19.05" width="6.81" height="6.81"/><rect class="cls-19" x="295.23" y="19.05" width="6.81" height="6.81"/><rect class="cls-19" x="304.31" y="19.05" width="6.81" height="6.81"/><rect class="cls-19" x="331.56" y="19.05" width="6.81" height="6.81"/><rect class="cls-19" x="340.65" y="19.05" width="6.81" height="6.81"/><rect class="cls-19" x="213.47" y="9.97" width="6.81" height="6.81"/><rect class="cls-19" x="194.55" y="9.97" width="6.81" height="6.81"/><rect class="cls-19" x="185.47" y="9.97" width="6.81" height="6.81"/><rect class="cls-19" x="158.21" y="9.97" width="6.81" height="6.81"/><rect class="cls-21" x="149.13" y="9.97" width="6.81" height="6.81"/><rect class="cls-21" x="140.05" y="9.97" width="6.81" height="6.81"/><rect class="cls-22" x="130.96" y="9.97" width="6.81" height="6.81"/><rect class="cls-23" x="121.88" y="9.97" width="6.81" height="6.81"/><rect class="cls-20" x="112.8" y="9.97" width="6.81" height="6.81"/><rect class="cls-20" x="103.71" y="9.97" width="6.81" height="6.81"/><rect class="cls-19" x="222.56" y="9.97" width="6.81" height="6.81"/><rect class="cls-19" x="231.64" y="9.97" width="6.81" height="6.81"/><rect class="cls-19" x="240.73" y="9.97" width="6.81" height="6.81"/><rect class="cls-19" x="258.89" y="9.97" width="6.81" height="6.81"/><rect class="cls-19" x="249.81" y="9.97" width="6.81" height="6.81"/><rect class="cls-19" x="295.23" y="9.97" width="6.81" height="6.81"/><rect class="cls-19" x="313.4" y="9.97" width="6.81" height="6.81"/><rect class="cls-19" x="304.31" y="9.97" width="6.81" height="6.81"/><rect class="cls-19" x="340.65" y="9.97" width="6.81" height="6.81"/></g><g class="cls-24"><g class="cls-25"><g class="cls-26"><path class="cls-27" d="M973.08,66.51H944.91c-12.38,0-24-2.37-32.77-6.61-8-3.9-18.75-6.09-30.13-6.09H682c-12.38,0-24-2.26-32.78-6.5L588.64,18c-8-3.9-18.75-6-30.13-6H473.07c-11.38,0-22.08,2.11-30.13,6l-6.17,3.07C428,25.39,416.38,27.8,404,27.8H127.89V26H404c11.38,0,22.08-2.25,30.13-6.15l6.17-3c8.75-4.25,20.39-6.59,32.77-6.59h85.44c12.38,0,24,2.3,32.78,6.54l60.55,29.25c8,3.9,18.75,6,30.13,6H882c12.38,0,24,2.37,32.77,6.61,8.05,3.9,18.75,6.09,30.13,6.09h28.17c11.38,0,22.08-2.11,30.13-6l34.54-16.59c8.75-4.24,20.4-6.44,32.78-6.44h55.64v1.82h-55.64c-11.38,0-22.08,2-30.13,5.92L1005.86,60C997.1,64.28,985.46,66.51,973.08,66.51Z"/></g><g class="cls-26"><path class="cls-28" d="M1126.17,43.53h-75.28c-11.3,0-21.92-2.19-29.91-6.06-12.79-6.2-29.8-9.67-47.88-9.67H447.34V26H973.1c19.08,0,37,3.65,50.53,10.19,7.28,3.53,17,5.53,27.26,5.53h75.28Z"/></g></g></g><g class="cls-29"><g class="cls-30"><path class="cls-8" d="M391.56,61.87c.67,0,.94.49.94,1.27,0,1-.42,2.91-1.79,2.91-.67,0-.95-.49-.95-1.28C389.76,63.81,390.18,61.87,391.56,61.87Zm-.76,3.52c.63,0,.95-1.65.95-2.3,0-.35-.08-.56-.3-.56-.62,0-.94,1.69-.94,2.32C390.51,65.2,390.59,65.39,390.8,65.39Z"/><path class="cls-8" d="M392.68,65.85h.71l.46-2.32c0-.13.07-.36.07-.36h0s0-.06-.16,0l-.3.21-.39-.29,1.14-.86h.62l-.71,3.57h-1.43Z"/><path class="cls-8" d="M395.22,65.85h.7l.46-2.32.08-.36h0s0-.06-.15,0l-.31.21-.38-.29,1.13-.86h.62l-.71,3.57h-1.42Z"/><path class="cls-8" d="M399.72,61.87c.67,0,.94.49.94,1.27,0,1-.42,2.91-1.79,2.91-.67,0-.95-.49-.95-1.28C397.92,63.81,398.34,61.87,399.72,61.87ZM399,65.39c.63,0,1-1.65,1-2.3,0-.35-.08-.56-.3-.56-.62,0-.94,1.69-.94,2.32C398.67,65.2,398.75,65.39,399,65.39Z"/><path class="cls-8" d="M402,65.85h.71l.46-2.32c0-.13.07-.36.07-.36h0s0-.06-.16,0l-.3.21-.39-.29,1.14-.86h.62l-.71,3.57H402Z"/><path class="cls-8" d="M404.57,65.85h.71l.46-2.32.08-.36h0s0-.06-.15,0l-.31.21-.38-.29,1.13-.86h.62L406,65.85h-1.43Z"/><path class="cls-8" d="M407.11,65.85h.71l.46-2.32c0-.13.07-.36.07-.36h0s0-.06-.16,0l-.31.21-.38-.29,1.13-.86h.62l-.7,3.57h-1.43Z"/><path class="cls-8" d="M411.61,61.87c.67,0,.94.49.94,1.27,0,1-.42,2.91-1.79,2.91-.67,0-.95-.49-.95-1.28C409.81,63.81,410.23,61.87,411.61,61.87Zm-.75,3.52c.62,0,.94-1.65.94-2.3,0-.35-.08-.56-.3-.56-.62,0-.94,1.69-.94,2.32C410.56,65.2,410.64,65.39,410.86,65.39Z"/></g><g class="cls-30"><path class="cls-8" d="M416.72,61.87c.67,0,.94.49.94,1.27,0,1-.41,2.91-1.79,2.91-.67,0-.95-.49-.95-1.28C414.92,63.81,415.34,61.87,416.72,61.87ZM416,65.39c.62,0,.94-1.65.94-2.3,0-.35-.08-.56-.29-.56-.63,0-.95,1.69-.95,2.32C415.67,65.2,415.76,65.39,416,65.39Z"/><path class="cls-8" d="M417.85,65.85h.71l.46-2.32c0-.13.07-.36.07-.36h0s0-.06-.16,0l-.31.21-.38-.29,1.13-.86H420l-.7,3.57h-1.43Z"/><path class="cls-8" d="M420.38,65.85h.71l.46-2.32c0-.13.07-.36.07-.36h0s0-.06-.16,0l-.31.21-.38-.29,1.13-.86h.63l-.71,3.57h-1.43Z"/><path class="cls-8" d="M424.88,61.87c.67,0,.94.49.94,1.27,0,1-.41,2.91-1.79,2.91-.67,0-.95-.49-.95-1.28C423.08,63.81,423.5,61.87,424.88,61.87Zm-.75,3.52c.62,0,.94-1.65.94-2.3,0-.35-.08-.56-.29-.56-.63,0-.95,1.69-.95,2.32C423.83,65.2,423.92,65.39,424.13,65.39Z"/><path class="cls-8" d="M427.21,65.85h.7l.47-2.32c0-.13.07-.36.07-.36h0s0-.06-.16,0l-.31.21-.38-.29,1.13-.86h.62l-.7,3.57h-1.43Z"/><path class="cls-8" d="M429.74,65.85h.71l.46-2.32c0-.13.07-.36.07-.36h0s0-.06-.16,0l-.31.21-.38-.29,1.13-.86h.63l-.71,3.57h-1.43Z"/><path class="cls-8" d="M432.27,65.85H433l.46-2.32c0-.13.07-.36.07-.36h0s0-.06-.16,0l-.31.21-.38-.29,1.13-.86h.63l-.71,3.57h-1.43Z"/><path class="cls-8" d="M436.77,61.87c.67,0,1,.49,1,1.27,0,1-.42,2.91-1.8,2.91-.67,0-.95-.49-.95-1.28C435,63.81,435.4,61.87,436.77,61.87ZM436,65.39c.62,0,1-1.65,1-2.3,0-.35-.09-.56-.3-.56-.63,0-.95,1.69-.95,2.32C435.72,65.2,435.81,65.39,436,65.39Z"/></g><g class="cls-30"><path class="cls-8" d="M374.72,60.49h.71l.46-2.31.08-.37h0s0-.07-.15,0l-.31.2-.38-.28,1.13-.85h.62l-.71,3.57h-1.43Z"/><path class="cls-8" d="M379.23,56.49c.67,0,.94.49.94,1.27,0,1-.42,2.91-1.79,2.91-.67,0-.95-.49-.95-1.28C377.43,58.43,377.85,56.49,379.23,56.49ZM378.47,60c.63,0,.95-1.65.95-2.3,0-.35-.09-.56-.3-.56-.62,0-.94,1.68-.94,2.31C378.18,59.81,378.26,60,378.47,60Z"/><path class="cls-8" d="M380.35,60.49h.71l.46-2.31c0-.14.07-.37.07-.37h0s0-.07-.16,0l-.3.2-.39-.28,1.14-.85h.62l-.71,3.57h-1.43Z"/><path class="cls-8" d="M382.88,60.49h.71l.46-2.31.08-.37h0s0-.07-.15,0l-.31.2-.38-.28,1.13-.85H385l-.71,3.57h-1.43Z"/><path class="cls-8" d="M388.58,56.49c.68,0,.95.49.95,1.27,0,1-.42,2.91-1.79,2.91-.68,0-.95-.49-.95-1.28C386.79,58.43,387.21,56.49,388.58,56.49ZM387.83,60c.63,0,.95-1.65.95-2.3,0-.35-.09-.56-.3-.56-.62,0-.94,1.68-.94,2.31C387.54,59.81,387.62,60,387.83,60Z"/><path class="cls-8" d="M391.68,56.49c.67,0,.95.49.95,1.27,0,1-.42,2.91-1.8,2.91-.67,0-.95-.49-.95-1.28C389.88,58.43,390.31,56.49,391.68,56.49ZM390.93,60c.62,0,.94-1.65.94-2.3,0-.35-.08-.56-.29-.56-.63,0-.95,1.68-.95,2.31C390.63,59.81,390.72,60,390.93,60Z"/><path class="cls-8" d="M392.81,60.49h.71l.46-2.31c0-.14.07-.37.07-.37h0s0-.07-.16,0l-.31.2-.38-.28,1.13-.85H395l-.71,3.57h-1.43Z"/><path class="cls-8" d="M397.31,56.49c.67,0,.94.49.94,1.27,0,1-.41,2.91-1.79,2.91-.67,0-.95-.49-.95-1.28C395.51,58.43,395.93,56.49,397.31,56.49ZM396.56,60c.62,0,.94-1.65.94-2.3,0-.35-.08-.56-.29-.56-.63,0-.95,1.68-.95,2.31C396.26,59.81,396.35,60,396.56,60Z"/><path class="cls-8" d="M399.63,60.49h.71l.46-2.31.08-.37h0s0-.07-.15,0l-.31.2-.38-.28,1.13-.85h.62l-.71,3.57h-1.43Z"/><path class="cls-8" d="M402.17,60.49h.71l.46-2.31c0-.14.07-.37.07-.37h0s0-.07-.16,0l-.31.2-.38-.28,1.13-.85h.62l-.7,3.57h-1.43Z"/><path class="cls-8" d="M406.67,56.49c.67,0,.94.49.94,1.27,0,1-.42,2.91-1.79,2.91-.67,0-.95-.49-.95-1.28C404.87,58.43,405.29,56.49,406.67,56.49ZM405.92,60c.62,0,.94-1.65.94-2.3,0-.35-.08-.56-.3-.56-.62,0-.94,1.68-.94,2.31C405.62,59.81,405.7,60,405.92,60Z"/><path class="cls-8" d="M407.79,60.49h.71l.46-2.31.08-.37h0s0-.07-.15,0l-.31.2-.38-.28,1.13-.85h.62l-.71,3.57h-1.43Z"/></g><g class="cls-30"><path class="cls-8" d="M342.92,71.21h.71l.46-2.32c0-.14.07-.36.07-.36h0s0,0-.16.07l-.31.21-.38-.3,1.13-.87h.63l-.71,3.57h-1.43Z"/><path class="cls-8" d="M347.42,67.26c.67,0,.95.49.95,1.27,0,1-.42,2.91-1.8,2.91-.67,0-.95-.49-.95-1.27C345.62,69.2,346.05,67.26,347.42,67.26Zm-.75,3.52c.62,0,.94-1.64.94-2.29,0-.36-.08-.57-.29-.57-.63,0-.95,1.69-.95,2.32C346.37,70.59,346.46,70.78,346.67,70.78Z"/><path class="cls-8" d="M348.55,71.21h.71l.46-2.32c0-.14.07-.36.07-.36h0s0,0-.16.07l-.31.21-.38-.3,1.13-.87h.63L350,71.21h-1.43Z"/><path class="cls-8" d="M351.08,71.21h.71l.46-2.32c0-.14.07-.36.07-.36h0s0,0-.16.07l-.31.21-.38-.3,1.13-.87h.63l-.71,3.57h-1.43Z"/><path class="cls-8" d="M356.78,67.26c.67,0,1,.49,1,1.27,0,1-.42,2.91-1.8,2.91-.67,0-.95-.49-.95-1.27C355,69.2,355.4,67.26,356.78,67.26ZM356,70.78c.62,0,.94-1.64.94-2.29,0-.36-.08-.57-.29-.57-.63,0-.95,1.69-.95,2.32C355.73,70.59,355.82,70.78,356,70.78Z"/><path class="cls-8" d="M359.88,67.26c.67,0,.94.49.94,1.27,0,1-.42,2.91-1.79,2.91-.67,0-.95-.49-.95-1.27C358.08,69.2,358.5,67.26,359.88,67.26Zm-.76,3.52c.63,0,.95-1.64.95-2.29,0-.36-.09-.57-.3-.57-.62,0-.94,1.69-.94,2.32C358.83,70.59,358.91,70.78,359.12,70.78Z"/><path class="cls-8" d="M361,71.21h.71l.46-2.32c0-.14.07-.36.07-.36h0s0,0-.16.07l-.3.21-.39-.3,1.14-.87h.62l-.71,3.57H361Z"/><path class="cls-8" d="M365.5,67.26c.68,0,.95.49.95,1.27,0,1-.42,2.91-1.8,2.91-.67,0-.95-.49-.95-1.27C363.7,69.2,364.13,67.26,365.5,67.26Zm-.75,3.52c.63,0,.95-1.64.95-2.29,0-.36-.09-.57-.3-.57-.62,0-.94,1.69-.94,2.32C364.46,70.59,364.54,70.78,364.75,70.78Z"/><path class="cls-8" d="M367.83,71.21h.71l.46-2.32c0-.14.07-.36.07-.36h0s0,0-.16.07l-.31.21-.38-.3,1.13-.87H370l-.71,3.57h-1.43Z"/><path class="cls-8" d="M370.36,71.21h.71l.46-2.32c0-.14.07-.36.07-.36h0s0,0-.16.07l-.31.21-.38-.3,1.14-.87h.62l-.71,3.57h-1.43Z"/><path class="cls-8" d="M374.86,67.26c.68,0,.95.49.95,1.27,0,1-.42,2.91-1.8,2.91-.67,0-.95-.49-.95-1.27C373.06,69.2,373.49,67.26,374.86,67.26Zm-.75,3.52c.63,0,.95-1.64.95-2.29,0-.36-.09-.57-.3-.57-.62,0-.95,1.69-.95,2.32C373.81,70.59,373.9,70.78,374.11,70.78Z"/><path class="cls-8" d="M376,71.21h.71l.46-2.32c0-.14.07-.36.07-.36h0s0,0-.16.07l-.31.21-.38-.3,1.13-.87h.63l-.71,3.57H376Z"/></g><g class="cls-30"><path class="cls-8" d="M381.94,71.21h.71l.46-2.32c0-.14.07-.36.07-.36h0s0,0-.16.07l-.31.21-.38-.3,1.13-.87h.63l-.71,3.57h-1.43Z"/><path class="cls-8" d="M386.44,67.26c.67,0,.94.49.94,1.27,0,1-.41,2.91-1.79,2.91-.67,0-.95-.49-.95-1.27C384.64,69.2,385.06,67.26,386.44,67.26Zm-.75,3.52c.62,0,.94-1.64.94-2.29,0-.36-.08-.57-.29-.57-.63,0-.95,1.69-.95,2.32C385.39,70.59,385.48,70.78,385.69,70.78Z"/><path class="cls-8" d="M387.57,71.21h.7l.46-2.32.08-.36h0s0,0-.16.07l-.31.21-.38-.3,1.13-.87h.62L389,71.21h-1.42Z"/><path class="cls-8" d="M390.1,71.21h.71l.46-2.32c0-.14.07-.36.07-.36h0s0,0-.16.07l-.31.21-.38-.3,1.13-.87h.63l-.71,3.57H390.1Z"/><path class="cls-8" d="M395.8,67.26c.67,0,.94.49.94,1.27,0,1-.41,2.91-1.79,2.91-.67,0-.95-.49-.95-1.27C394,69.2,394.42,67.26,395.8,67.26Zm-.75,3.52c.62,0,.94-1.64.94-2.29,0-.36-.08-.57-.3-.57-.62,0-.94,1.69-.94,2.32C394.75,70.59,394.83,70.78,395.05,70.78Z"/><path class="cls-8" d="M398.89,67.26c.68,0,.95.49.95,1.27,0,1-.42,2.91-1.79,2.91-.68,0-1-.49-1-1.27C397.09,69.2,397.52,67.26,398.89,67.26Zm-.75,3.52c.63,0,.95-1.64.95-2.29,0-.36-.09-.57-.3-.57-.62,0-.94,1.69-.94,2.32C397.85,70.59,397.93,70.78,398.14,70.78Z"/><path class="cls-8" d="M400,71.21h.71l.46-2.32c0-.14.07-.36.07-.36h0s0,0-.16.07l-.31.21-.38-.3,1.13-.87h.63l-.71,3.57H400Z"/><path class="cls-8" d="M404.52,67.26c.67,0,1,.49,1,1.27,0,1-.42,2.91-1.8,2.91-.67,0-.95-.49-.95-1.27C402.72,69.2,403.15,67.26,404.52,67.26Zm-.75,3.52c.62,0,.94-1.64.94-2.29,0-.36-.08-.57-.29-.57-.63,0-.95,1.69-.95,2.32C403.47,70.59,403.56,70.78,403.77,70.78Z"/><path class="cls-8" d="M406.85,71.21h.71l.46-2.32c0-.14.07-.36.07-.36h0s0,0-.16.07l-.31.21-.38-.3,1.13-.87H409l-.71,3.57h-1.43Z"/><path class="cls-8" d="M409.38,71.21h.71l.46-2.32c0-.14.07-.36.07-.36h0s0,0-.16.07l-.31.21-.38-.3,1.13-.87h.63l-.71,3.57h-1.43Z"/><path class="cls-8" d="M413.88,67.26c.67,0,.95.49.95,1.27,0,1-.42,2.91-1.8,2.91-.67,0-.95-.49-.95-1.27C412.08,69.2,412.51,67.26,413.88,67.26Zm-.75,3.52c.62,0,.94-1.64.94-2.29,0-.36-.08-.57-.29-.57-.63,0-.95,1.69-.95,2.32C412.83,70.59,412.92,70.78,413.13,70.78Z"/><path class="cls-8" d="M415,71.21h.71l.46-2.32c0-.14.07-.36.07-.36h0s0,0-.16.07l-.31.21-.38-.3,1.13-.87h.63l-.71,3.57H415Z"/></g><g class="cls-30"><path class="cls-8" d="M413,59.6h.71l.46-2.32c0-.13.07-.36.07-.36h0a.41.41,0,0,1-.16.21l-.31.29-.38-.41,1.13-1h.63l-.71,3.57h.71l-.12.89h-2.14Z"/><path class="cls-8" d="M417.53,56c.67,0,.94.49.94,1.27,0,1-.41,2.91-1.79,2.91-.67,0-.95-.49-.95-1.28C415.73,57.89,416.15,56,417.53,56Zm-.75,3.51c.62,0,.94-1.64.94-2.29,0-.35-.08-.56-.29-.56-.63,0-.95,1.68-.95,2.31C416.48,59.27,416.57,59.46,416.78,59.46Z"/><path class="cls-8" d="M418.66,59.6h.7l.46-2.32.08-.36h0a.41.41,0,0,1-.16.21l-.31.29L419,57l1.13-1h.62l-.71,3.57h.72l-.12.89h-2.15Z"/><path class="cls-8" d="M421.19,59.6h.71l.46-2.32c0-.13.07-.36.07-.36h0a.41.41,0,0,1-.16.21l-.31.29-.38-.41,1.13-1h.63l-.71,3.57h.71l-.12.89h-2.14Z"/><path class="cls-8" d="M426.89,56c.67,0,.94.49.94,1.27,0,1-.42,2.91-1.79,2.91-.67,0-1-.49-1-1.28C425.09,57.89,425.51,56,426.89,56Zm-.75,3.51c.62,0,.94-1.64.94-2.29,0-.35-.08-.56-.3-.56-.62,0-.94,1.68-.94,2.31C425.84,59.27,425.92,59.46,426.14,59.46Z"/><path class="cls-8" d="M430,56c.68,0,.95.49.95,1.27,0,1-.42,2.91-1.79,2.91-.68,0-1-.49-1-1.28C428.18,57.89,428.61,56,430,56Zm-.75,3.51c.63,0,.95-1.64.95-2.29,0-.35-.09-.56-.3-.56-.62,0-.94,1.68-.94,2.31C428.94,59.27,429,59.46,429.23,59.46Z"/><path class="cls-8" d="M431.11,59.6h.71l.46-2.32c0-.13.07-.36.07-.36h0a.41.41,0,0,1-.16.21l-.31.29-.38-.41,1.13-1h.63l-.71,3.57h.71l-.12.89H431Z"/><path class="cls-8" d="M435.61,56c.67,0,.95.49.95,1.27,0,1-.42,2.91-1.8,2.91-.67,0-.95-.49-.95-1.28C433.81,57.89,434.24,56,435.61,56Zm-.75,3.51c.62,0,.94-1.64.94-2.29,0-.35-.08-.56-.29-.56-.63,0-.95,1.68-.95,2.31C434.56,59.27,434.65,59.46,434.86,59.46Z"/><path class="cls-8" d="M437.94,59.6h.71l.46-2.32c0-.13.07-.36.07-.36h0a.41.41,0,0,1-.16.21l-.31.29-.38-.41,1.13-1h.63l-.71,3.57h.71l-.12.89h-2.14Z"/><path class="cls-8" d="M440.47,59.6h.71l.46-2.32c0-.13.07-.36.07-.36h0a.41.41,0,0,1-.16.21l-.31.29-.38-.41L442,56h.63l-.71,3.57h.71l-.12.89h-2.14Z"/><path class="cls-8" d="M445,56c.67,0,.95.49.95,1.27,0,1-.42,2.91-1.8,2.91-.67,0-.95-.49-.95-1.28C443.17,57.89,443.6,56,445,56Zm-.75,3.51c.62,0,.94-1.64.94-2.29,0-.35-.08-.56-.29-.56-.63,0-.95,1.68-.95,2.31C443.92,59.27,444,59.46,444.22,59.46Z"/><path class="cls-8" d="M446.1,59.6h.71l.46-2.32c0-.13.07-.36.07-.36h0a.41.41,0,0,1-.16.21l-.31.29-.38-.41,1.13-1h.63l-.71,3.57h.71l-.12.89H446Z"/></g><g class="cls-30"><path class="cls-8" d="M440.91,65.85h.71l.46-2.32c0-.13.07-.36.07-.36h0s0-.06-.16,0l-.31.21-.38-.29,1.13-.86h.63l-.71,3.57h-1.43Z"/><path class="cls-8" d="M445.41,61.87c.67,0,.94.49.94,1.27,0,1-.41,2.91-1.79,2.91-.67,0-.95-.49-.95-1.28C443.61,63.81,444,61.87,445.41,61.87Zm-.75,3.52c.62,0,.94-1.65.94-2.3,0-.35-.08-.56-.29-.56-.63,0-.95,1.69-.95,2.32C444.36,65.2,444.45,65.39,444.66,65.39Z"/><path class="cls-8" d="M446.54,65.85h.71l.46-2.32c0-.13.07-.36.07-.36h0s0-.06-.16,0l-.31.21-.38-.29,1.13-.86h.62l-.7,3.57h-1.43Z"/><path class="cls-8" d="M449.07,65.85h.71l.46-2.32c0-.13.07-.36.07-.36h0s0-.06-.16,0l-.31.21-.38-.29,1.13-.86h.63l-.71,3.57h-1.43Z"/><path class="cls-8" d="M454.77,61.87c.67,0,.94.49.94,1.27,0,1-.41,2.91-1.79,2.91-.67,0-.95-.49-.95-1.28C453,63.81,453.39,61.87,454.77,61.87ZM454,65.39c.62,0,.94-1.65.94-2.3,0-.35-.08-.56-.29-.56-.63,0-.95,1.69-.95,2.32C453.72,65.2,453.81,65.39,454,65.39Z"/><path class="cls-8" d="M457.86,61.87c.68,0,.95.49.95,1.27,0,1-.42,2.91-1.79,2.91-.68,0-.95-.49-.95-1.28C456.07,63.81,456.49,61.87,457.86,61.87Zm-.75,3.52c.63,0,.95-1.65.95-2.3,0-.35-.09-.56-.3-.56-.62,0-.94,1.69-.94,2.32C456.82,65.2,456.9,65.39,457.11,65.39Z"/><path class="cls-8" d="M459,65.85h.71l.46-2.32c0-.13.07-.36.07-.36h0s0-.06-.16,0l-.31.21-.38-.29,1.14-.86h.62l-.71,3.57H459Z"/><path class="cls-8" d="M463.49,61.87c.67,0,.95.49.95,1.27,0,1-.42,2.91-1.8,2.91-.67,0-.95-.49-.95-1.28C461.69,63.81,462.12,61.87,463.49,61.87Zm-.75,3.52c.62,0,.95-1.65.95-2.3,0-.35-.09-.56-.3-.56-.63,0-.95,1.69-.95,2.32C462.44,65.2,462.53,65.39,462.74,65.39Z"/><path class="cls-8" d="M465.82,65.85h.71l.46-2.32c0-.13.07-.36.07-.36h0s0-.06-.16,0l-.31.21-.38-.29,1.13-.86H468l-.71,3.57h-1.43Z"/><path class="cls-8" d="M468.35,65.85h.71l.46-2.32c0-.13.07-.36.07-.36h0s0-.06-.16,0l-.31.21-.38-.29,1.14-.86h.62l-.71,3.57h-1.43Z"/><path class="cls-8" d="M472.85,61.87c.67,0,.95.49.95,1.27,0,1-.42,2.91-1.8,2.91-.67,0-.95-.49-.95-1.28C471.05,63.81,471.48,61.87,472.85,61.87Zm-.75,3.52c.62,0,.95-1.65.95-2.3,0-.35-.09-.56-.3-.56-.63,0-.95,1.69-.95,2.32C471.8,65.2,471.89,65.39,472.1,65.39Z"/><path class="cls-8" d="M474,65.85h.71l.46-2.32c0-.13.07-.36.07-.36h0s0-.06-.16,0l-.31.21-.38-.29,1.13-.86h.63l-.71,3.57H474Z"/></g><g class="cls-30"><path class="cls-8" d="M346.43,53.35h.84l.55-2.51c0-.16.09-.17.09-.17h0s0-.1-.18,0l-.37.23-.46-.68,1.35-1.37H349l-.85,4.47H349l-.15.89h-2.56Z"/><path class="cls-8" d="M349.45,53.35h.84l.55-2.51c0-.16.09-.17.09-.17h0s0-.1-.19,0l-.37.23-.46-.68,1.36-1.37H352l-.84,4.47H352l-.15.89H349.3Z"/><path class="cls-8" d="M354.82,49.06c.8,0,1.13.59,1.13,1.52,0,1.15-.5,3.47-2.14,3.47-.8,0-1.14-.58-1.14-1.52C352.67,51.38,353.18,49.06,354.82,49.06Zm-.9,4.2c.75,0,1.13-2,1.13-2.74,0-.42-.1-.67-.35-.67-.75,0-1.13,2-1.13,2.77C353.57,53,353.67,53.26,353.92,53.26Z"/><path class="cls-8" d="M358.52,49.06c.8,0,1.12.59,1.12,1.52,0,1.15-.49,3.47-2.14,3.47-.8,0-1.13-.58-1.13-1.52C356.37,51.38,356.87,49.06,358.52,49.06Zm-.9,4.2c.74,0,1.13-2,1.13-2.74,0-.42-.1-.67-.36-.67-.74,0-1.13,2-1.13,2.77C357.26,53,357.37,53.26,357.62,53.26Z"/><path class="cls-8" d="M361.29,53.35h.85l.55-2.51c0-.16.08-.17.08-.17h0s0-.1-.19,0l-.37.23-.45-.68,1.35-1.37h.74L363,53.35h.85l-.14.89h-2.56Z"/><path class="cls-8" d="M366.66,49.06c.81,0,1.13.59,1.13,1.52,0,1.15-.5,3.47-2.14,3.47-.8,0-1.13-.58-1.13-1.52C364.52,51.38,365,49.06,366.66,49.06Zm-.89,4.2c.74,0,1.13-2,1.13-2.74,0-.42-.11-.67-.36-.67-.74,0-1.13,2-1.13,2.77C365.41,53,365.51,53.26,365.77,53.26Z"/><path class="cls-8" d="M368,53.35h.84l.55-2.51c0-.16.09-.17.09-.17h0s0-.1-.19,0l-.37.23-.46-.68,1.36-1.37h.74l-.84,4.47h.85l-.15.89h-2.56Z"/><path class="cls-8" d="M373.38,49.06c.8,0,1.13.59,1.13,1.52,0,1.15-.5,3.47-2.14,3.47-.8,0-1.14-.58-1.14-1.52C371.23,51.38,371.74,49.06,373.38,49.06Zm-.9,4.2c.75,0,1.13-2,1.13-2.74,0-.42-.1-.67-.35-.67-.75,0-1.13,2-1.13,2.77C372.13,53,372.23,53.26,372.48,53.26Z"/><path class="cls-8" d="M378.51,49.06c.8,0,1.13.59,1.13,1.52,0,1.15-.5,3.47-2.15,3.47-.8,0-1.13-.58-1.13-1.52C376.36,51.38,376.87,49.06,378.51,49.06Zm-.9,4.2c.75,0,1.13-2,1.13-2.74,0-.42-.1-.67-.36-.67-.74,0-1.12,2-1.12,2.77C377.26,53,377.36,53.26,377.61,53.26Z"/><path class="cls-8" d="M382.2,49.06c.81,0,1.13.59,1.13,1.52,0,1.15-.5,3.47-2.14,3.47-.8,0-1.14-.58-1.14-1.52C380.05,51.38,380.56,49.06,382.2,49.06Zm-.89,4.2c.74,0,1.12-2,1.12-2.74,0-.42-.1-.67-.35-.67-.75,0-1.13,2-1.13,2.77C381,53,381.05,53.26,381.31,53.26Z"/><path class="cls-8" d="M383.55,53.35h.84l.55-2.51c0-.16.09-.17.09-.17h0s0-.1-.18,0l-.37.23-.46-.68,1.35-1.37h.75l-.85,4.47h.86l-.15.89H383.4Z"/><path class="cls-8" d="M386.57,53.35h.84l.55-2.51c0-.16.09-.17.09-.17h0s0-.1-.19,0l-.37.23-.46-.68,1.36-1.37h.74l-.84,4.47h.85l-.15.89h-2.56Z"/><path class="cls-8" d="M393.37,49.06c.81,0,1.13.59,1.13,1.52,0,1.15-.5,3.47-2.14,3.47-.8,0-1.14-.58-1.14-1.52C391.22,51.38,391.73,49.06,393.37,49.06Zm-.89,4.2c.74,0,1.12-2,1.12-2.74,0-.42-.1-.67-.35-.67-.74,0-1.13,2-1.13,2.77C392.12,53,392.22,53.26,392.48,53.26Z"/><path class="cls-8" d="M397.07,49.06c.8,0,1.13.59,1.13,1.52,0,1.15-.5,3.47-2.15,3.47-.8,0-1.13-.58-1.13-1.52C394.92,51.38,395.43,49.06,397.07,49.06Zm-.9,4.2c.75,0,1.13-2,1.13-2.74,0-.42-.1-.67-.36-.67-.74,0-1.12,2-1.12,2.77C395.82,53,395.92,53.26,396.17,53.26Z"/><path class="cls-8" d="M398.41,53.35h.85l.55-2.51c0-.16.08-.17.08-.17h0s0-.1-.19,0l-.37.23-.45-.68,1.35-1.37H401l-.85,4.47H401l-.14.89h-2.56Z"/><path class="cls-8" d="M403.79,49.06c.8,0,1.12.59,1.12,1.52,0,1.15-.5,3.47-2.14,3.47-.8,0-1.13-.58-1.13-1.52C401.64,51.38,402.14,49.06,403.79,49.06Zm-.9,4.2c.74,0,1.13-2,1.13-2.74,0-.42-.1-.67-.36-.67-.74,0-1.13,2-1.13,2.77C402.53,53,402.63,53.26,402.89,53.26Z"/><path class="cls-8" d="M406.56,53.35h.85l.55-2.51c0-.16.08-.17.08-.17h0s0-.1-.19,0l-.37.23-.45-.68,1.35-1.37h.74l-.84,4.47h.85l-.14.89h-2.57Z"/><path class="cls-8" d="M411.93,49.06c.81,0,1.13.59,1.13,1.52,0,1.15-.5,3.47-2.14,3.47-.8,0-1.14-.58-1.14-1.52C409.78,51.38,410.29,49.06,411.93,49.06Zm-.89,4.2c.74,0,1.13-2,1.13-2.74,0-.42-.11-.67-.36-.67-.74,0-1.13,2-1.13,2.77C410.68,53,410.78,53.26,411,53.26Z"/><path class="cls-8" d="M415.63,49.06c.8,0,1.13.59,1.13,1.52,0,1.15-.5,3.47-2.14,3.47-.81,0-1.14-.58-1.14-1.52C413.48,51.38,414,49.06,415.63,49.06Zm-.9,4.2c.75,0,1.13-2,1.13-2.74,0-.42-.1-.67-.35-.67-.75,0-1.13,2-1.13,2.77C414.38,53,414.48,53.26,414.73,53.26Z"/><path class="cls-8" d="M417,53.35h.85l.55-2.51c0-.16.08-.17.08-.17h0s0-.1-.19,0l-.37.23-.45-.68,1.35-1.37h.75l-.85,4.47h.85l-.14.89h-2.56Z"/><path class="cls-8" d="M421.43,53.35h.84l.55-2.51c0-.16.09-.17.09-.17h0s0-.1-.18,0l-.37.23-.46-.68,1.35-1.37H424l-.85,4.47H424l-.15.89h-2.56Z"/><path class="cls-8" d="M426.8,49.06c.8,0,1.13.59,1.13,1.52,0,1.15-.5,3.47-2.14,3.47-.81,0-1.14-.58-1.14-1.52C424.65,51.38,425.16,49.06,426.8,49.06Zm-.9,4.2c.75,0,1.13-2,1.13-2.74,0-.42-.1-.67-.35-.67-.75,0-1.13,2-1.13,2.77C425.55,53,425.65,53.26,425.9,53.26Z"/><path class="cls-8" d="M430.49,49.06c.81,0,1.13.59,1.13,1.52,0,1.15-.5,3.47-2.14,3.47-.8,0-1.14-.58-1.14-1.52C428.34,51.38,428.85,49.06,430.49,49.06Zm-.89,4.2c.74,0,1.13-2,1.13-2.74,0-.42-.11-.67-.36-.67-.74,0-1.13,2-1.13,2.77C429.24,53,429.34,53.26,429.6,53.26Z"/><path class="cls-8" d="M431.84,53.35h.84l.55-2.51c0-.16.09-.17.09-.17h0s0-.1-.19,0l-.37.23-.46-.68,1.36-1.37h.74l-.85,4.47h.86l-.15.89h-2.56Z"/><path class="cls-8" d="M436.29,53.35h.85l.55-2.51c0-.16.08-.17.08-.17h0s0-.1-.19,0l-.37.23-.45-.68,1.35-1.37h.74L438,53.35h.85l-.14.89h-2.56Z"/><path class="cls-8" d="M439.31,53.35h.85l.55-2.51c0-.16.09-.17.09-.17h0s0-.1-.19,0l-.37.23-.45-.68,1.35-1.37h.75L441,53.35h.85l-.14.89h-2.56Z"/><path class="cls-8" d="M442.34,53.35h.84l.55-2.51c0-.16.09-.17.09-.17h0s0-.1-.18,0l-.37.23-.46-.68,1.35-1.37h.75L444,53.35h.86l-.15.89h-2.56Z"/><path class="cls-8" d="M447.71,49.06c.8,0,1.13.59,1.13,1.52,0,1.15-.5,3.47-2.14,3.47-.81,0-1.14-.58-1.14-1.52C445.56,51.38,446.07,49.06,447.71,49.06Zm-.9,4.2c.75,0,1.13-2,1.13-2.74,0-.42-.1-.67-.35-.67-.75,0-1.13,2-1.13,2.77C446.46,53,446.56,53.26,446.81,53.26Z"/><path class="cls-8" d="M452.84,49.06c.8,0,1.12.59,1.12,1.52,0,1.15-.5,3.47-2.14,3.47-.8,0-1.13-.58-1.13-1.52C450.69,51.38,451.19,49.06,452.84,49.06Zm-.9,4.2c.74,0,1.13-2,1.13-2.74,0-.42-.1-.67-.36-.67-.74,0-1.13,2-1.13,2.77C451.58,53,451.68,53.26,451.94,53.26Z"/><path class="cls-8" d="M456.53,49.06c.8,0,1.13.59,1.13,1.52,0,1.15-.5,3.47-2.14,3.47-.81,0-1.14-.58-1.14-1.52C454.38,51.38,454.89,49.06,456.53,49.06Zm-.9,4.2c.75,0,1.13-2,1.13-2.74,0-.42-.1-.67-.35-.67-.75,0-1.13,2-1.13,2.77C455.28,53,455.38,53.26,455.63,53.26Z"/><path class="cls-8" d="M457.87,53.35h.85l.55-2.51c0-.16.09-.17.09-.17h0s0-.1-.19,0l-.37.23-.45-.68,1.35-1.37h.75l-.85,4.47h.85l-.14.89h-2.56Z"/><path class="cls-8" d="M460.9,53.35h.84l.55-2.51c0-.16.09-.17.09-.17h0s0-.1-.18,0l-.37.23-.46-.68,1.35-1.37h.75l-.85,4.47h.86l-.15.89h-2.56Z"/></g></g></g></g></g></svg>